<svg width="180" height="27" viewBox="0 0 180 27" fill="none" xmlns="http://www.w3.org/2000/svg">
<path fill-rule="evenodd" clip-rule="evenodd" d="M122.654 17.378C122.149 17.017 121.861 16.5118 121.717 15.8621L119.556 16.0426C119.736 17.3058 120.312 18.2442 121.177 18.8577C122.077 19.4713 123.158 19.7961 124.491 19.7961C125.175 19.7961 125.86 19.6878 126.436 19.5074C127.012 19.3269 127.517 19.0743 127.949 18.7133C128.381 18.3524 128.705 17.9554 128.957 17.4501C129.21 16.9809 129.318 16.4396 129.318 15.826C129.318 15.2846 129.246 14.8155 129.065 14.4184C128.885 14.0575 128.633 13.7327 128.309 13.444C128.021 13.1552 127.625 12.9026 127.156 12.7221C126.688 12.5056 126.184 12.3251 125.607 12.1447L124.707 11.8559C124.311 11.7477 123.986 11.6394 123.698 11.5311C123.374 11.4228 123.158 11.3146 122.942 11.1702C122.726 11.0619 122.582 10.8815 122.474 10.701C122.365 10.5206 122.329 10.304 122.329 10.0153C122.329 9.50999 122.474 9.14907 122.87 8.82425C123.266 8.49942 123.77 8.35506 124.419 8.35506C125.139 8.35506 125.679 8.49942 126.076 8.78816C126.472 9.11298 126.724 9.50999 126.868 10.0514L129.029 9.8709C128.885 8.82425 128.453 7.95805 127.661 7.34449C126.904 6.73094 125.86 6.40611 124.527 6.40611C123.806 6.40611 123.194 6.51439 122.618 6.69485C122.041 6.8753 121.573 7.12794 121.177 7.45277C120.78 7.77759 120.492 8.13851 120.276 8.6077C120.06 9.0408 119.952 9.54608 119.952 10.0875C119.952 10.5927 120.024 11.0258 120.204 11.4228C120.348 11.8199 120.6 12.1808 120.925 12.4695C121.249 12.7943 121.609 13.047 122.077 13.2635C122.546 13.4801 123.05 13.6966 123.626 13.841L124.599 14.0936C124.742 14.1366 124.885 14.1739 125.023 14.21C125.233 14.2648 125.434 14.317 125.607 14.3824C125.896 14.4906 126.148 14.5989 126.364 14.7433C126.544 14.8876 126.724 15.0681 126.832 15.2486C126.94 15.429 127.012 15.6817 127.012 15.9704C127.012 16.5478 126.796 17.017 126.364 17.378C125.932 17.7389 125.355 17.9193 124.563 17.9193C123.77 17.9193 123.122 17.7389 122.654 17.378ZM41.3168 15.8621C41.4609 16.5118 41.7491 17.0171 42.2534 17.378C42.7216 17.7389 43.37 17.9194 44.1625 17.9194C44.955 17.9194 45.5313 17.7389 45.9636 17.378C46.3959 17.0171 46.612 16.5479 46.612 15.9704C46.612 15.6817 46.5399 15.429 46.4319 15.2486C46.3238 15.0681 46.1437 14.8877 45.9636 14.7433C45.7475 14.5989 45.4953 14.4907 45.2071 14.3824C45.0333 14.3171 44.8332 14.2649 44.6227 14.21L44.6227 14.21C44.4843 14.1739 44.3414 14.1366 44.1985 14.0937L43.2259 13.841C42.6496 13.6966 42.1453 13.4801 41.677 13.2635C41.2087 13.047 40.8485 12.7944 40.5243 12.4695C40.2001 12.1808 39.948 11.8199 39.8039 11.4229C39.6238 11.0259 39.5517 10.5928 39.5517 10.0875C39.5517 9.54611 39.6598 9.04083 39.8759 8.60773C40.0921 8.13854 40.3802 7.77763 40.7765 7.4528C41.1727 7.12798 41.641 6.87534 42.2173 6.69488C42.7937 6.51442 43.4061 6.40615 44.1265 6.40615C45.4593 6.40615 46.5039 6.73097 47.2604 7.34453C48.0168 7.95808 48.4851 8.82428 48.6292 9.87094L46.4679 10.0514C46.3238 9.51002 46.0717 9.11302 45.6754 8.78819C45.2792 8.49946 44.7389 8.35509 44.0184 8.35509C43.37 8.35509 42.8657 8.49946 42.4695 8.82428C42.1093 9.11302 41.9292 9.51002 41.9292 10.0153C41.9292 10.304 41.9652 10.5206 42.0733 10.701C42.1813 10.8815 42.3254 11.062 42.5415 11.1702C42.7577 11.3146 42.9738 11.4229 43.298 11.5312C43.5862 11.6394 43.9104 11.7477 44.3066 11.856L45.2071 12.1447C45.7835 12.3252 46.2878 12.5056 46.7561 12.7222C47.2244 12.9026 47.6206 13.1553 47.9448 13.444C48.269 13.7327 48.5211 14.0576 48.7012 14.4185C48.8813 14.8155 48.9534 15.2847 48.9534 15.8261C48.9534 16.4396 48.8453 16.981 48.5932 17.4502C48.341 17.9555 48.0168 18.3525 47.5846 18.7134C47.1523 19.0743 46.648 19.3269 46.0717 19.5074C45.4953 19.6879 44.8469 19.7961 44.1265 19.7961C42.7937 19.7961 41.713 19.4713 40.8125 18.8577C39.948 18.2442 39.3716 17.3058 39.1915 16.0426L41.3168 15.8621ZM58.0668 6.44215C59.0394 6.44215 59.9039 6.62261 60.6964 6.94743C61.4889 7.27226 62.1733 7.74145 62.7497 8.31891C63.326 8.89638 63.7583 9.61821 64.0464 10.4483C64.3706 11.2784 64.5147 12.1807 64.5147 13.1552C64.5147 14.1658 64.3346 15.1041 64.0104 15.8982C63.6862 16.7283 63.2179 17.414 62.6056 18.0276L64.3346 20.0487V20.6622H62.1373L60.9486 19.1825C60.5163 19.3629 60.0841 19.5073 59.6158 19.6156C59.1475 19.7239 58.6432 19.76 58.0668 19.76C57.0943 19.76 56.1937 19.5795 55.4012 19.2547C54.6088 18.9298 53.9244 18.4607 53.384 17.8832C52.8437 17.3057 52.4115 16.5839 52.0873 15.7538C51.7991 14.9237 51.619 14.0575 51.619 13.083C51.619 12.1085 51.7631 11.2062 52.0873 10.3761C52.3754 9.54603 52.8077 8.86029 53.384 8.24673C53.9604 7.66926 54.6088 7.20007 55.4012 6.87525C56.1937 6.58652 57.0943 6.44215 58.0668 6.44215ZM58.0308 8.35501C57.3824 8.35501 56.8061 8.46328 56.3018 8.71592C55.7975 8.96856 55.3652 9.29339 55.005 9.69039C54.6448 10.1235 54.3926 10.6288 54.2125 11.2062C54.0324 11.7837 53.9244 12.3973 53.9244 13.083C53.9244 13.7687 54.0324 14.3823 54.2125 14.9959C54.3926 15.5733 54.6808 16.0786 55.041 16.5117C55.4012 16.9448 55.8335 17.2696 56.3378 17.5223C56.8421 17.7749 57.4185 17.8832 58.0668 17.8832C58.7152 17.8832 59.2916 17.7749 59.7959 17.5223C60.3002 17.3057 60.7324 16.9809 61.0927 16.5478C61.4529 16.1147 61.705 15.6094 61.9212 15.032C62.1013 14.4545 62.2093 13.8048 62.2093 13.083C62.2093 12.3973 62.1013 11.7476 61.9212 11.1702C61.741 10.5927 61.4529 10.0874 61.0927 9.6543C60.7324 9.2212 60.3002 8.89638 59.7959 8.67983C59.2556 8.49937 58.6792 8.35501 58.0308 8.35501ZM75.1411 17.1253C74.6008 17.7028 73.8803 17.9915 72.9798 17.9915C72.0792 17.9915 71.3588 17.7028 70.8905 17.1253C70.3862 16.5839 70.1341 15.6816 70.1341 14.5267V6.69483H67.8647V14.5989C67.8647 15.5373 67.9728 16.3313 68.2249 16.9809C68.4411 17.6306 68.8013 18.172 69.2335 18.6051C69.6658 19.0382 70.2061 19.363 70.8545 19.5434C71.4669 19.7239 72.1873 19.8322 73.0158 19.8322C73.8083 19.8322 74.5287 19.7239 75.1771 19.5434C75.8255 19.3269 76.3658 19.0382 76.7981 18.6051C77.2303 18.172 77.5545 17.6306 77.8067 16.9809C78.0588 16.3313 78.1669 15.5373 78.1669 14.5989V6.69483H75.8975V14.5267C75.8975 15.6816 75.6454 16.5478 75.1411 17.1253ZM80.4003 18.9721L84.9736 6.74071H88.3587L92.86 18.9721V19.5855H90.6273L89.3309 15.9053H83.7853L82.4889 19.5855H80.4003V18.9721ZM84.4695 13.993H88.7188L88.0346 11.9364C87.7465 11.1426 87.5304 10.4931 87.3864 9.98799C87.2063 9.48286 87.0623 9.04989 86.9542 8.653H86.4141C86.3781 8.76124 86.342 8.86046 86.306 8.95968C86.27 9.05891 86.234 9.15813 86.198 9.26637C86.126 9.48286 86.054 9.69934 85.9459 9.95191C85.8989 10.1169 85.8365 10.2972 85.7688 10.4929L85.7687 10.4931L85.7686 10.4935L85.7681 10.4948L85.7676 10.4962C85.732 10.5992 85.6949 10.7064 85.6578 10.8179C85.6079 10.968 85.5502 11.1259 85.4884 11.2951L85.4881 11.2961L85.4879 11.2966L85.4878 11.2969C85.4161 11.493 85.3389 11.7043 85.2617 11.9364L84.4695 13.993ZM103.272 19.5855H105.432V18.9721L101.687 14.3538C102.119 14.2455 102.516 14.1012 102.876 13.9208C103.272 13.7043 103.596 13.4518 103.884 13.1631C104.172 12.8384 104.388 12.4776 104.568 12.0446C104.748 11.6116 104.82 11.1065 104.82 10.5292C104.82 9.15813 104.316 8.18394 103.308 7.49841C102.84 7.17368 102.299 6.95719 101.723 6.88503C101.111 6.77679 100.499 6.74071 99.8507 6.74071H95.6734V19.5855H97.9061V14.5342H99.3465L103.272 19.5855ZM99.8507 12.5858H97.9061V8.61691H99.8507C100.679 8.61691 101.363 8.76124 101.867 9.04989C102.371 9.33853 102.624 9.84367 102.624 10.5653C102.624 11.2869 102.371 11.792 101.867 12.1168C101.399 12.4415 100.715 12.5858 99.8507 12.5858ZM108.317 6.74071H116.612V8.7196H110.507V12.0657H116.181V14.0086H110.507V17.6066H116.72V19.5855H108.317V6.74071ZM132.56 6.74071H137.218C138.085 6.74071 138.807 6.84925 139.421 7.03017C140.035 7.21108 140.504 7.50054 140.865 7.86237C141.227 8.22419 141.479 8.65838 141.66 9.12876C141.804 9.59913 141.913 10.1419 141.913 10.6846C141.913 11.3721 141.804 11.951 141.588 12.4214C141.371 12.8917 141.046 13.3259 140.613 13.6516C140.179 13.9772 139.674 14.2305 139.096 14.3752C138.482 14.52 137.832 14.6285 137.074 14.6285H134.799V19.5855H132.56V6.74071ZM134.762 12.7108H136.929C137.326 12.7108 137.688 12.6746 138.013 12.6023C138.338 12.5299 138.626 12.4214 138.879 12.2766C139.132 12.1319 139.313 11.9148 139.457 11.6615C139.602 11.4083 139.674 11.0826 139.674 10.6846C139.674 10.2866 139.602 9.96095 139.457 9.70768C139.313 9.4544 139.132 9.2373 138.879 9.09257C138.626 8.94784 138.374 8.8393 138.013 8.76693C137.688 8.69456 137.326 8.65838 136.929 8.65838H134.726V12.7108H134.762ZM147.075 6.74071L142.501 18.9721H142.465V19.5855H144.554L145.851 15.9053H151.396L152.693 19.5855H154.925V18.9721L150.46 6.74071H147.075ZM150.784 13.993H146.535L147.255 11.9364C147.332 11.7045 147.409 11.4934 147.481 11.2974L147.481 11.297C147.543 11.1271 147.601 10.9686 147.651 10.8179C147.688 10.7057 147.726 10.5979 147.761 10.4943L147.762 10.4934L147.762 10.4931C147.83 10.2973 147.892 10.1169 147.939 9.95191C148.047 9.69934 148.119 9.48286 148.191 9.26637C148.227 9.15813 148.263 9.05891 148.299 8.95968C148.335 8.86046 148.371 8.76124 148.407 8.653H149.019C149.073 8.84894 149.144 9.05368 149.219 9.27155L149.219 9.27178C149.297 9.49515 149.379 9.73233 149.452 9.98799C149.596 10.4931 149.812 11.1426 150.1 11.9364L150.784 13.993ZM168.545 16.1508C168.329 16.6561 168.077 17.1253 167.753 17.5584C167.428 17.9915 167.032 18.3885 166.564 18.7133C166.096 19.0382 165.555 19.2908 164.943 19.5074C164.331 19.7239 163.646 19.7961 162.89 19.7961C161.953 19.7961 161.053 19.6156 160.296 19.2908C159.504 18.966 158.855 18.4968 158.315 17.9193C157.775 17.3419 157.342 16.62 157.054 15.7899C156.766 14.9598 156.622 14.0936 156.622 13.1191C156.622 12.1808 156.766 11.2785 157.054 10.4484C157.342 9.61826 157.775 8.93252 158.351 8.31897C158.891 7.70541 159.576 7.23622 160.368 6.9114C161.161 6.58657 162.025 6.40611 162.998 6.40611C164.403 6.40611 165.591 6.73094 166.528 7.38059C167.464 8.03023 168.149 8.89643 168.545 9.97918L166.276 10.4123C165.952 9.76263 165.519 9.22126 164.979 8.86034C164.439 8.49942 163.754 8.28288 162.962 8.28288C162.313 8.28288 161.773 8.39115 161.269 8.64379C160.764 8.89643 160.368 9.22126 160.008 9.65436C159.684 10.0875 159.396 10.5927 159.216 11.1702C159.035 11.7477 158.963 12.3612 158.963 13.047C158.963 13.7327 159.071 14.3463 159.252 14.9237C159.432 15.5012 159.72 16.0065 160.044 16.4396C160.404 16.8727 160.837 17.1975 161.305 17.414C161.773 17.6306 162.385 17.775 163.034 17.775C163.862 17.775 164.547 17.5584 165.087 17.1614C165.627 16.7644 166.06 16.2591 166.348 15.6817L168.545 16.1508ZM179.866 6.74071H171.571V19.5855H179.974V17.6066H173.761V14.0086H179.435V12.0657H173.761V8.7196H179.866V6.74071Z" fill="black"/>
<path fill-rule="evenodd" clip-rule="evenodd" d="M18.892 5.47965L20.4769 7.06768L10.3548 17.2094C9.23818 18.3283 7.76129 18.9418 6.17634 18.9418C4.59139 18.9418 3.11451 18.3283 1.99784 17.2094C-0.307547 14.9357 -0.307547 11.1821 1.99784 8.87226L10.7511 0.102005L12.336 1.69004L3.54676 10.4603C2.1059 11.904 2.1059 14.2138 3.54676 15.6575C4.98763 17.1011 7.29301 17.1011 8.73388 15.6575L18.892 5.47965ZM17.0909 3.71112L6.9328 13.8889L5.34785 12.3009L15.5059 2.12309C16.6226 1.00425 18.0995 0.390688 19.6845 0.390688C21.2694 0.390688 22.7463 1.00425 23.863 2.12309L24.6554 2.9171L23.0705 4.50513L22.278 3.71112C21.5936 3.02538 20.657 2.62837 19.6845 2.62837C18.7119 2.62837 17.7753 3.02538 17.0909 3.71112ZM30.599 8.87228C29.4823 7.75344 28.0054 7.13988 26.4205 7.13988C24.8355 7.13988 23.3587 7.75344 22.242 8.87228L12.0839 19.0501L13.6688 20.6381L23.8269 10.4603C25.2678 9.01665 27.5732 9.01665 29.0141 10.4603C29.6985 11.1461 30.0947 12.0844 30.0947 13.0589C30.0947 14.0334 29.6985 14.9718 29.0141 15.6575L20.2608 24.4278L21.8458 26.0158L30.599 17.2455C32.8684 14.9357 32.8684 11.1821 30.599 8.87228ZM15.5059 22.4066L25.664 12.2288L27.249 13.8168L17.0909 23.9947C15.9742 25.1135 14.4973 25.7271 12.9124 25.7271C11.3274 25.7271 9.85056 25.1135 8.73389 23.9947L7.94141 23.2006L9.52636 21.6126L10.3188 22.4066C11.7597 23.8503 14.0651 23.8503 15.5059 22.4066Z" fill="black"/>
</svg>
